<svg id="visual" viewBox="0 0 900 600" width="900" height="600" xmlns="http://www.w3.org/2000/svg" xmlns:xlink="http://www.w3.org/1999/xlink" version="1.1"><rect x="0" y="0" width="900" height="600" fill="#002233"></rect><path d="M0 492L21.5 488C43 484 86 476 128.8 464C171.7 452 214.3 436 257.2 421.2C300 406.3 343 392.7 385.8 394.7C428.7 396.7 471.3 414.3 514.2 430.3C557 446.3 600 460.7 642.8 455.7C685.7 450.7 728.3 426.3 771.2 413.2C814 400 857 398 878.5 397L900 396L900 601L878.5 601C857 601 814 601 771.2 601C728.3 601 685.7 601 642.8 601C600 601 557 601 514.2 601C471.3 601 428.7 601 385.8 601C343 601 300 601 257.2 601C214.3 601 171.7 601 128.8 601C86 601 43 601 21.5 601L0 601Z" fill="#0066FF" stroke-linecap="round" stroke-linejoin="miter"></path></svg>